<svg xmlns="http://www.w3.org/2000/svg" overflow="visible" width="347.046" height="52.0" viewBox="0 0 347.046 52.0"><path fill="#303030" d="M21.99983500000001 16.939999999999998H13.375835000000002V44.0H8.623835000000007V16.939999999999998H0.0V12.671999999999997H21.99983500000001V16.939999999999998ZM42.83689460101833 44.0H38.436894601018324V41.756C37.67419460101833 42.6066 36.76489460101833 43.237300000000005 35.70889460101833 43.647999999999996C34.682194601018324 44.0586 33.61149460101832 44.263999999999996 32.496894601018326 44.263999999999996C31.352894601018335 44.263999999999996 30.311494601018325 44.087999999999994 29.37289460101833 43.736000000000004C28.463494601018326 43.384 27.671494601018324 42.8853 26.996894601018326 42.239999999999995C26.14619460101833 41.38929999999999 25.55949460101833 40.450599999999994 25.236894601018328 39.42399999999999C24.91419460101833 38.367999999999995 24.752894601018326 37.2093 24.752894601018326 35.94799999999999V21.692H29.240894601018326V35.288C29.240894601018326 37.01859999999999 29.666194601018333 38.28 30.516894601018322 39.072C31.39689460101833 39.864000000000004 32.46749460101833 40.260000000000005 33.728894601018325 40.260000000000005C34.344894601018325 40.260000000000005 34.93149460101833 40.172 35.48889460101833 39.995999999999995C36.075494601018335 39.7906 36.574194601018334 39.482600000000005 36.984894601018325 39.072C37.39549460101833 38.6613 37.718194601018325 38.147999999999996 37.95289460101833 37.532C38.216894601018325 36.8866 38.34889460101833 36.1386 38.34889460101833 35.288V21.692H42.83689460101833V44.0ZM64.54469460101834 23.54 61.15669460101833 26.928000000000004C60.657694601018335 26.4293 60.159694601018316 26.062600000000003 59.66069460101832 25.828000000000003C59.19169460101833 25.564 58.57569460101831 25.432000000000002 57.812694601018336 25.432000000000002C56.58069460101834 25.432000000000002 55.524694601018325 25.8866 54.64469460101833 26.796C53.79369460101833 27.676000000000002 53.36869460101832 28.8933 53.36869460101832 30.448V44.0H48.88069460101832V21.69197H53.280694601018325V24.112000000000002C53.867694601018314 23.32 54.68869460101831 22.6746 55.744694601018324 22.17597C56.800694601018336 21.677310000000002 57.95969460101833 21.427970000000002 59.22069460101832 21.427970000000002C60.30569460101833 21.427970000000002 61.27369460101832 21.58931 62.12469460101832 21.911970000000004C62.97569460101832 22.234640000000002 63.78169460101833 22.777300000000004 64.54469460101834 23.54ZM84.5304509533811 44.0H80.0424509533811V30.404000000000003C80.0424509533811 28.6733 79.60245095338111 27.412000000000003 78.72245095338111 26.62C77.87245095338112 25.828000000000003 76.8164509533811 25.432000000000002 75.5544509533811 25.432000000000002C74.29345095338111 25.432000000000002 73.2084509533811 25.8426 72.2984509533811 26.664C71.38945095338111 27.456000000000003 70.9344509533811 28.7026 70.9344509533811 30.404000000000003V44.0H66.4464509533811V21.69197H70.84645095338111V23.936C71.60945095338111 23.085300000000004 72.5044509533811 22.4546 73.5304509533811 22.04397C74.58645095338112 21.63331 75.6724509533811 21.427970000000002 76.7864509533811 21.427970000000002C77.93045095338111 21.427970000000002 78.9574509533811 21.603970000000004 79.86645095338112 21.95597C80.80545095338111 22.30797 81.6124509533811 22.806600000000003 82.2864509533811 23.452C83.1374509533811 24.3026 83.72445095338112 25.256 84.0464509533811 26.312C84.3694509533811 27.3386 84.5304509533811 28.4826 84.5304509533811 29.744000000000003V44.0ZM110.75445095338111 23.54 107.3664509533811 26.928000000000004C106.86745095338111 26.4293 106.36945095338109 26.062600000000003 105.8704509533811 25.828000000000003C105.4014509533811 25.564 104.78545095338109 25.432000000000002 104.02245095338111 25.432000000000002C102.79045095338111 25.432000000000002 101.7344509533811 25.8866 100.8544509533811 26.796C100.0034509533811 27.676000000000002 99.5784509533811 28.8933 99.5784509533811 30.448V44.0H95.0904509533811V21.69197H99.4904509533811V24.112000000000002C100.07745095338109 23.32 100.89845095338109 22.6746 101.9544509533811 22.17597C103.01045095338111 21.677310000000002 104.1694509533811 21.427970000000002 105.4304509533811 21.427970000000002C106.5154509533811 21.427970000000002 107.4834509533811 21.58931 108.3344509533811 21.911970000000004C109.18545095338109 22.234640000000002 109.9914509533811 22.777300000000004 110.75445095338111 23.54ZM129.6844509533812 34.144000000000005H115.2084509533812C115.2084509533812 36.08 115.69245095338124 37.6053 116.6604509533812 38.72C117.62845095338116 39.8346 119.03645095338118 40.392 120.88445095338113 40.392C122.14645095338119 40.392 123.15845095338113 40.216 123.92045095338119 39.864000000000004C124.71245095338122 39.482600000000005 125.50445095338114 38.896 126.29645095338117 38.104L129.15645095338118 40.788C128.57045095338117 41.3746 127.98345095338118 41.888000000000005 127.39645095338119 42.328C126.83945095338117 42.738600000000005 126.22345095338119 43.0906 125.54845095338123 43.384C124.90345095338114 43.6773 124.1844509533812 43.8973 123.39245095338117 44.044C122.63045095338123 44.1906 121.76445095338113 44.264 120.79645095338117 44.264C119.38845095338115 44.264 118.06845095338122 44.0733 116.83645095338113 43.692C115.63445095338113 43.2813 114.5784509533812 42.636 113.66845095338124 41.756C112.78845095338113 40.8466 112.08445095338118 39.65860000000001 111.55645095338116 38.192C111.02845095338114 36.725300000000004 110.76445095338113 34.93600000000001 110.76445095338113 32.824C110.76445095338113 29.186600000000002 111.61545095338113 26.3853 113.31645095338115 24.42C115.04745095338114 22.425310000000003 117.35045095338114 21.427970000000002 120.22445095338117 21.427970000000002C121.72045095338115 21.427970000000002 123.05545095338118 21.69197 124.22845095338118 22.219970000000004C125.40245095338116 22.748 126.38445095338113 23.4813 127.17645095338116 24.42C127.99845095338117 25.358600000000003 128.61445095338115 26.488 129.02445095338123 27.808C129.46445095338117 29.128 129.6844509533812 30.580000000000002 129.6844509533812 32.164V34.144000000000005ZM125.24045095338113 31.020000000000003C125.21145095338113 30.3453 125.15245095338116 29.8026 125.0644509533812 29.392000000000003C125.0064509533812 28.952 124.85945095338116 28.4826 124.62445095338114 27.984C124.27245095338117 27.133300000000002 123.71545095338115 26.458600000000004 122.95245095338123 25.96C122.19045095338117 25.432000000000002 121.2804509533812 25.168 120.22445095338117 25.168C119.16845095338124 25.168 118.24445095338115 25.432000000000002 117.45245095338123 25.96C116.69045095338117 26.458600000000004 116.13245095338118 27.133300000000002 115.7804509533812 27.984C115.54645095338117 28.4826 115.39945095338123 28.952 115.34045095338115 29.392000000000003C115.28245095338116 29.8026 115.23845095338118 30.3453 115.2084509533812 31.020000000000003H125.24045095338113ZM151.7312509533812 53.019999999999996H147.2432509533812V41.712C146.42185095338118 42.67999999999999 145.54185095338119 43.354600000000005 144.6032509533812 43.736000000000004C143.6645509533812 44.087999999999994 142.5938509533812 44.263999999999996 141.3912509533812 44.263999999999996C140.2765509533812 44.263999999999996 139.2498509533812 44.087999999999994 138.3112509533812 43.736000000000004C137.3725509533812 43.384 136.5952509533812 42.89999999999999 135.9792509533812 42.28399999999999C135.42185095338118 41.726600000000005 134.9672509533812 41.0813 134.61525095338118 40.348C134.29255095338118 39.614599999999996 134.0432509533812 38.8373 133.8672509533812 38.01599999999999C133.6912509533812 37.1653 133.5738509533812 36.3 133.5152509533812 35.42C133.4858509533812 34.53999999999999 133.4712509533812 33.6746 133.4712509533812 32.824C133.4712509533812 31.973299999999995 133.4858509533812 31.108000000000004 133.5152509533812 30.227999999999994C133.5738509533812 29.348 133.6912509533812 28.497299999999996 133.8672509533812 27.676000000000002C134.0432509533812 26.854600000000005 134.29255095338118 26.077299999999994 134.61525095338118 25.343999999999994C134.9672509533812 24.610600000000005 135.42185095338118 23.9653 135.9792509533812 23.408C136.5952509533812 22.792 137.3725509533812 22.308 138.3112509533812 21.955999999999996C139.2792509533812 21.604 140.3205509533812 21.427999999999997 141.4352509533812 21.427999999999997C142.6672509533812 21.427999999999997 143.7378509533812 21.6186 144.6472509533812 22.0C145.5858509533812 22.351999999999997 146.4805509533812 23.0413 147.3312509533812 24.067999999999998V21.692H151.7312509533812V53.019999999999996ZM147.2432509533812 32.824C147.2432509533812 31.8266 147.1845509533812 30.888000000000005 147.0672509533812 30.007999999999996C146.9792509533812 29.098600000000005 146.77385095338119 28.306600000000003 146.4512509533812 27.632000000000005C146.1285509533812 26.957300000000004 145.6592509533812 26.429299999999998 145.0432509533812 26.048000000000002C144.4272509533812 25.637299999999996 143.6205509533812 25.432000000000002 142.6232509533812 25.432000000000002C141.5965509533812 25.432000000000002 140.7752509533812 25.637299999999996 140.1592509533812 26.048000000000002C139.5725509533812 26.429299999999998 139.1032509533812 26.957300000000004 138.7512509533812 27.632000000000005C138.4285509533812 28.306600000000003 138.2085509533812 29.098600000000005 138.0912509533812 30.007999999999996C138.0032509533812 30.888000000000005 137.9592509533812 31.8266 137.9592509533812 32.824C137.9592509533812 33.821299999999994 138.0032509533812 34.77459999999999 138.0912509533812 35.684C138.2085509533812 36.56399999999999 138.4285509533812 37.355999999999995 138.7512509533812 38.06C139.1032509533812 38.7346 139.5725509533812 39.2773 140.1592509533812 39.688C140.7752509533812 40.0693 141.5965509533812 40.260000000000005 142.6232509533812 40.260000000000005C143.6205509533812 40.260000000000005 144.4272509533812 40.0693 145.0432509533812 39.688C145.6592509533812 39.2773 146.1285509533812 38.7346 146.4512509533812 38.06C146.77385095338119 37.355999999999995 146.9792509533812 36.56399999999999 147.0672509533812 35.684C147.1845509533812 34.77459999999999 147.2432509533812 33.821299999999994 147.2432509533812 32.824ZM175.61155095338123 44.0H171.21155095338122V41.756C170.44885095338122 42.6066 169.53955095338122 43.237300000000005 168.4835509533812 43.647999999999996C167.4568509533812 44.0586 166.38615095338122 44.263999999999996 165.27155095338122 44.263999999999996C164.12755095338122 44.263999999999996 163.0861509533812 44.087999999999994 162.14755095338123 43.736000000000004C161.23815095338122 43.384 160.44615095338122 42.8853 159.77155095338122 42.239999999999995C158.92085095338123 41.38929999999999 158.33415095338123 40.450599999999994 158.01155095338123 39.42399999999999C157.68885095338123 38.367999999999995 157.52755095338122 37.2093 157.52755095338122 35.94799999999999V21.692H162.01555095338122V35.288C162.01555095338122 37.01859999999999 162.44085095338124 38.28 163.2915509533812 39.072C164.17155095338123 39.864000000000004 165.2421509533812 40.260000000000005 166.50355095338122 40.260000000000005C167.11955095338124 40.260000000000005 167.7061509533812 40.172 168.26355095338124 39.995999999999995C168.85015095338122 39.7906 169.34885095338123 39.482600000000005 169.75955095338122 39.072C170.1701509533812 38.6613 170.4928509533812 38.147999999999996 170.72755095338124 37.532C170.99155095338122 36.8866 171.12355095338123 36.1386 171.12355095338123 35.288V21.692H175.61155095338123V44.0ZM186.27540095338122 17.291970000000003H181.5234009533812V12.539972200000001H186.27540095338122V17.291970000000003ZM186.14340095338122 44.0H181.65540095338122V21.69197H186.14340095338122V44.0ZM207.82100095338123 23.54 204.43300095338122 26.928000000000004C203.93400095338123 26.4293 203.4360009533812 26.062600000000003 202.93700095338122 25.828000000000003C202.46800095338122 25.564 201.8520009533812 25.432000000000002 201.08900095338123 25.432000000000002C199.85700095338123 25.432000000000002 198.80100095338122 25.8866 197.92100095338122 26.796C197.07000095338122 27.676000000000002 196.6450009533812 28.8933 196.6450009533812 30.448V44.0H192.1570009533812V21.69197H196.55700095338122V24.112000000000002C197.1440009533812 23.32 197.9650009533812 22.6746 199.02100095338122 22.17597C200.07700095338123 21.677310000000002 201.23600095338122 21.427970000000002 202.49700095338122 21.427970000000002C203.58200095338123 21.427970000000002 204.55000095338121 21.58931 205.4010009533812 21.911970000000004C206.2520009533812 22.234640000000002 207.05800095338122 22.777300000000004 207.82100095338123 23.54ZM226.75100095338132 34.144000000000005H212.27500095338132C212.27500095338132 36.08 212.75900095338136 37.6053 213.72700095338132 38.72C214.69500095338128 39.8346 216.1030009533813 40.392 217.95100095338125 40.392C219.2130009533813 40.392 220.22500095338125 40.216 220.9870009533813 39.864000000000004C221.77900095338134 39.482600000000005 222.57100095338126 38.896 223.3630009533813 38.104L226.2230009533813 40.788C225.6370009533813 41.3746 225.0500009533813 41.888000000000005 224.4630009533813 42.328C223.9060009533813 42.738600000000005 223.2900009533813 43.0906 222.61500095338135 43.384C221.97000095338126 43.6773 221.25100095338132 43.8973 220.4590009533813 44.044C219.69700095338135 44.1906 218.83100095338125 44.264 217.8630009533813 44.264C216.45500095338127 44.264 215.13500095338134 44.0733 213.90300095338125 43.692C212.70100095338125 43.2813 211.64500095338133 42.636 210.73500095338136 41.756C209.85500095338125 40.8466 209.1510009533813 39.65860000000001 208.62300095338128 38.192C208.09500095338126 36.725300000000004 207.83100095338125 34.93600000000001 207.83100095338125 32.824C207.83100095338125 29.186600000000002 208.68200095338125 26.3853 210.38300095338127 24.42C212.11400095338126 22.425310000000003 214.41700095338126 21.427970000000002 217.29100095338129 21.427970000000002C218.78700095338127 21.427970000000002 220.1220009533813 21.69197 221.2950009533813 22.219970000000004C222.46900095338128 22.748 223.45100095338125 23.4813 224.24300095338128 24.42C225.0650009533813 25.358600000000003 225.68100095338127 26.488 226.09100095338135 27.808C226.5310009533813 29.128 226.75100095338132 30.580000000000002 226.75100095338132 32.164V34.144000000000005ZM222.30700095338125 31.020000000000003C222.27800095338125 30.3453 222.21900095338128 29.8026 222.13100095338132 29.392000000000003C222.07300095338132 28.952 221.92600095338128 28.4826 221.69100095338126 27.984C221.3390009533813 27.133300000000002 220.78200095338127 26.458600000000004 220.01900095338135 25.96C219.2570009533813 25.432000000000002 218.34700095338133 25.168 217.29100095338129 25.168C216.23500095338136 25.168 215.31100095338127 25.432000000000002 214.51900095338135 25.96C213.7570009533813 26.458600000000004 213.1990009533813 27.133300000000002 212.84700095338133 27.984C212.6130009533813 28.4826 212.46600095338135 28.952 212.40700095338127 29.392000000000003C212.34900095338128 29.8026 212.3050009533813 30.3453 212.27500095338132 31.020000000000003H222.30700095338125ZM263.2740009533813 44.0H258.7860009533813V30.404000000000003C258.7860009533813 28.6733 258.3460009533813 27.412000000000003 257.4660009533813 26.62C256.6150009533813 25.828000000000003 255.55900095338126 25.432000000000002 254.2980009533813 25.432000000000002C253.6820009533813 25.432000000000002 253.09500095338126 25.5346 252.5380009533813 25.740000000000002C251.98100095338128 25.916000000000004 251.48200095338126 26.209300000000002 251.04200095338126 26.62C250.63100095338126 27.0013 250.29400095338127 27.5 250.03000095338126 28.116C249.7950009533813 28.7026 249.6780009533813 29.392000000000003 249.6780009533813 30.184V44.0H245.1900009533813V30.404000000000003C245.1900009533813 28.6733 244.7500009533813 27.412000000000003 243.8700009533813 26.62C243.0190009533813 25.828000000000003 241.96300095338125 25.432000000000002 240.7020009533813 25.432000000000002C239.44100095338126 25.432000000000002 238.35500095338125 25.8426 237.44600095338126 26.664C236.53700095338127 27.456000000000003 236.08200095338128 28.7026 236.08200095338128 30.404000000000003V44.0H231.59400095338128V21.69197H235.99400095338126V23.936C236.7570009533813 23.114600000000003 237.6510009533813 22.498600000000003 238.6780009533813 22.087970000000002C239.73400095338127 21.64797 240.8190009533813 21.427970000000002 241.93400095338126 21.427970000000002C244.7500009533813 21.427970000000002 246.86200095338125 22.5133 248.27000095338127 24.684C250.05900095338126 22.5133 252.39100095338125 21.427970000000002 255.26600095338125 21.427970000000002C256.41000095338126 21.427970000000002 257.4660009533813 21.603970000000004 258.43400095338126 21.95597C259.4020009533813 22.30797 260.2230009533813 22.806600000000003 260.8980009533813 23.452C261.7490009533813 24.3026 262.3500009533813 25.256 262.7020009533813 26.312C263.08300095338126 27.3386 263.2740009533813 28.4826 263.2740009533813 29.744000000000003V44.0ZM286.85600095338134 34.144000000000005H272.38000095338134C272.38000095338134 36.08 272.8640009533814 37.6053 273.83200095338134 38.72C274.8000009533813 39.8346 276.2080009533813 40.392 278.0560009533813 40.392C279.31800095338133 40.392 280.3300009533813 40.216 281.09200095338133 39.864000000000004C281.88400095338136 39.482600000000005 282.6760009533813 38.896 283.4680009533813 38.104L286.3280009533813 40.788C285.7420009533813 41.3746 285.1550009533813 41.888000000000005 284.56800095338133 42.328C284.0110009533813 42.738600000000005 283.3950009533813 43.0906 282.7200009533814 43.384C282.0750009533813 43.6773 281.35600095338134 43.8973 280.5640009533813 44.044C279.80200095338137 44.1906 278.93600095338127 44.264 277.9680009533813 44.264C276.5600009533813 44.264 275.24000095338135 44.0733 274.00800095338127 43.692C272.8060009533813 43.2813 271.75000095338135 42.636 270.8400009533814 41.756C269.96000095338127 40.8466 269.2560009533813 39.65860000000001 268.7280009533813 38.192C268.2000009533813 36.725300000000004 267.93600095338127 34.93600000000001 267.93600095338127 32.824C267.93600095338127 29.186600000000002 268.78700095338127 26.3853 270.4880009533813 24.42C272.2190009533813 22.425310000000003 274.5220009533813 21.427970000000002 277.3960009533813 21.427970000000002C278.8920009533813 21.427970000000002 280.2270009533813 21.69197 281.4000009533813 22.219970000000004C282.5740009533813 22.748 283.5560009533813 23.4813 284.3480009533813 24.42C285.1700009533813 25.358600000000003 285.7860009533813 26.488 286.1960009533814 27.808C286.6360009533813 29.128 286.85600095338134 30.580000000000002 286.85600095338134 32.164V34.144000000000005ZM282.41200095338127 31.020000000000003C282.38300095338127 30.3453 282.3240009533813 29.8026 282.23600095338134 29.392000000000003C282.17800095338134 28.952 282.0310009533813 28.4826 281.7960009533813 27.984C281.4440009533813 27.133300000000002 280.8870009533813 26.458600000000004 280.12400095338137 25.96C279.3620009533813 25.432000000000002 278.45200095338134 25.168 277.3960009533813 25.168C276.3400009533814 25.168 275.4160009533813 25.432000000000002 274.62400095338137 25.96C273.8620009533813 26.458600000000004 273.3040009533813 27.133300000000002 272.95200095338134 27.984C272.7180009533813 28.4826 272.5710009533814 28.952 272.5120009533813 29.392000000000003C272.4540009533813 29.8026 272.4100009533813 30.3453 272.38000095338134 31.020000000000003H282.41200095338127ZM309.7830009533813 44.0H305.2950009533813V30.404000000000003C305.2950009533813 28.6733 304.8550009533813 27.412000000000003 303.9750009533813 26.62C303.12500095338135 25.828000000000003 302.0690009533813 25.432000000000002 300.8070009533813 25.432000000000002C299.5460009533813 25.432000000000002 298.4610009533813 25.8426 297.5510009533813 26.664C296.6420009533813 27.456000000000003 296.1870009533813 28.7026 296.1870009533813 30.404000000000003V44.0H291.6990009533813V21.69197H296.0990009533813V23.936C296.8620009533813 23.085300000000004 297.7570009533813 22.4546 298.7830009533813 22.04397C299.8390009533813 21.63331 300.9250009533813 21.427970000000002 302.03900095338133 21.427970000000002C303.18300095338134 21.427970000000002 304.21000095338127 21.603970000000004 305.1190009533813 21.95597C306.05800095338134 22.30797 306.8650009533813 22.806600000000003 307.53900095338133 23.452C308.39000095338133 24.3026 308.9770009533813 25.256 309.2990009533813 26.312C309.6220009533813 27.3386 309.7830009533813 28.4826 309.7830009533813 29.744000000000003V44.0ZM324.9350009533813 44.0H322.2510009533813C321.1950009533813 44.0 320.2860009533813 43.824 319.5230009533813 43.472C318.7610009533813 43.120000000000005 318.1300009533813 42.6653 317.6310009533813 42.108000000000004C317.13300095338127 41.5213 316.7510009533813 40.8613 316.4870009533813 40.128C316.2530009533813 39.365300000000005 316.1350009533813 38.588 316.1350009533813 37.79600000000001V25.520000000000003H313.5830009533813V22.087970000000002H316.1350009533813V15.311970000000002H320.6230009533813V22.087970000000002H324.9350009533813V25.520000000000003H320.6230009533813V37.576C320.6230009533813 38.3973 320.8140009533813 39.0426 321.1950009533813 39.512C321.6060009533813 39.952 322.2370009533813 40.172 323.0870009533813 40.172H324.9350009533813V44.0ZM346.04600095338134 37.18000000000001C346.04600095338134 38.353300000000004 345.8110009533813 39.38 345.34200095338133 40.260000000000005C344.8720009533813 41.14 344.2270009533813 41.888000000000005 343.4060009533813 42.504000000000005C342.58400095338135 43.0906 341.6020009533813 43.53060000000001 340.4580009533813 43.824C339.3140009533813 44.1173 338.08200095338134 44.264 336.76200095338135 44.264C334.94300095338133 44.264 333.2560009533813 44.0586 331.70200095338134 43.648C330.14700095338134 43.208 328.7100009533813 42.342600000000004 327.39000095338133 41.05200000000001L330.3380009533813 38.104C331.2470009533813 39.0426 332.25900095338136 39.6733 333.3740009533813 39.996C334.5180009533813 40.2893 335.64700095338134 40.43600000000001 336.76200095338135 40.43600000000001C338.14000095338133 40.43600000000001 339.2990009533813 40.1866 340.23800095338134 39.688C341.17600095338133 39.1893 341.6460009533813 38.412000000000006 341.6460009533813 37.356C341.6460009533813 36.5933 341.41100095338135 35.992000000000004 340.94200095338135 35.55200000000001C340.5020009533813 35.0826 339.7390009533813 34.804 338.65400095338134 34.716L335.0900009533813 34.408C332.9780009533813 34.232 331.3500009533813 33.66 330.20600095338136 32.692C329.06200095338136 31.6946 328.49000095338135 30.2133 328.49000095338135 28.248C328.49000095338135 27.1626 328.7100009533813 26.1946 329.1500009533813 25.344C329.5900009533813 24.4933 330.1910009533813 23.789300000000004 330.9540009533813 23.232C331.71600095338135 22.645300000000002 332.59600095338135 22.205310000000004 333.59400095338134 21.911970000000004C334.62000095338135 21.58931 335.7200009533813 21.427970000000002 336.89400095338135 21.427970000000002C338.5660009533813 21.427970000000002 340.10600095338134 21.61864 341.51400095338136 21.99997C342.9220009533813 22.38131 344.13900095338136 23.026600000000002 345.16600095338134 23.936L342.3500009533813 26.796C341.6460009533813 26.209300000000002 340.81000095338135 25.7986 339.84200095338133 25.564C338.9030009533813 25.300000000000004 337.9060009533813 25.168 336.8500009533813 25.168C335.50000095338135 25.168 334.48800095338134 25.432000000000002 333.8140009533813 25.96C333.13900095338136 26.488 332.8020009533813 27.177300000000002 332.8020009533813 28.028000000000002C332.8020009533813 28.7026 333.0070009533813 29.274600000000003 333.41800095338135 29.744000000000003C333.8580009533813 30.184 334.6790009533813 30.462600000000002 335.8820009533813 30.580000000000002L339.40200095338133 30.888C341.51400095338136 31.064 343.14200095338134 31.665300000000002 344.28600095338135 32.692C345.45900095338135 33.6893 346.04600095338134 35.1853 346.04600095338134 37.18000000000001Z"/></svg>