<svg xmlns="http://www.w3.org/2000/svg" width="579.99755859375" height="104" viewBox="0 0 579.99755859375 104" fill="none"><g transform="translate(1.54003906 12.45190430)"><path id="Built for the work that cannot afford to fail." d="M24.684 22.7041C24.684 24.1414 24.4493 25.4174 23.98 26.5321C23.5106 27.6174 22.8506 28.5414 22 29.3041C21.1786 30.0374 20.1813 30.5948 19.008 30.9761C17.864 31.3574 16.6026 31.5481 15.224 31.5481H2.55196V0.220095H14.74C17.6733 0.220095 19.976 0.982762 21.648 2.50809C23.3493 4.03343 24.2 6.13076 24.2 8.80009C24.2 9.65076 24.068 10.4428 23.804 11.1761C23.5693 11.8801 23.2466 12.5254 22.836 13.1121C22.4546 13.6694 22.0146 14.1534 21.516 14.5641C21.0173 14.9454 20.504 15.2388 19.976 15.4441C20.592 15.6788 21.1786 16.0161 21.736 16.4561C22.2933 16.8668 22.792 17.3654 23.232 17.9521C23.672 18.5388 24.024 19.2281 24.288 20.0201C24.552 20.8121 24.684 21.7068 24.684 22.7041ZM19.448 8.9761C19.448 7.50943 18.9786 6.39476 18.04 5.63209C17.1013 4.86943 15.8693 4.4881 14.344 4.4881H7.30396V13.4641H14.344C15.8693 13.4641 17.1013 13.0828 18.04 12.3201C18.9786 11.5574 19.448 10.4428 19.448 8.9761ZM19.932 22.4841C19.932 21.0761 19.492 19.9321 18.612 19.0521C17.732 18.1721 16.456 17.7321 14.784 17.7321H7.30396V27.2801H14.784C16.456 27.2801 17.732 26.8401 18.612 25.9601C19.492 25.0508 19.932 23.8921 19.932 22.4841ZM47.9637 31.5481H43.5637V29.3041C42.8011 30.1548 41.8917 30.7854 40.8357 31.1961C39.8091 31.6068 38.7384 31.8121 37.6237 31.8121C36.4797 31.8121 35.4384 31.6361 34.4997 31.2841C33.5904 30.9321 32.7984 30.4334 32.1237 29.7881C31.2731 28.9374 30.6864 27.9988 30.3637 26.9721C30.0411 25.9161 29.8797 24.7574 29.8797 23.4961V9.24009H34.3677V22.8361C34.3677 24.5668 34.7931 25.8281 35.6437 26.6201C36.5237 27.4121 37.5944 27.8081 38.8557 27.8081C39.4717 27.8081 40.0584 27.7201 40.6157 27.5441C41.2024 27.3388 41.7011 27.0308 42.1117 26.6201C42.5224 26.2094 42.8451 25.6961 43.0797 25.0801C43.3437 24.4348 43.4757 23.6868 43.4757 22.8361V9.24009H47.9637V31.5481ZM58.6276 4.84009H53.8756V0.0880942H58.6276V4.84009ZM58.4956 31.5481H54.0076V9.24009H58.4956V31.5481ZM73.2651 31.5481H70.4931C69.4371 31.5481 68.5131 31.3868 67.7211 31.0641C66.9585 30.7121 66.3278 30.2574 65.8291 29.7001C65.3305 29.1428 64.9638 28.4974 64.7291 27.7641C64.4945 27.0014 64.3771 26.2094 64.3771 25.3881V0.220095H68.8651V25.1241C68.8651 25.9748 69.0411 26.6201 69.3931 27.0601C69.7451 27.5001 70.3758 27.7201 71.2851 27.7201H73.2651V31.5481ZM86.4012 31.5481H83.7172C82.6612 31.5481 81.7518 31.3721 80.9892 31.0201C80.2265 30.6681 79.5958 30.2134 79.0972 29.6561C78.5985 29.0694 78.2172 28.4094 77.9532 27.6761C77.7185 26.9134 77.6012 26.1361 77.6012 25.3441V13.0681H75.0492V9.63609H77.6012V2.8601H82.0892V9.63609H86.4012V13.0681H82.0892V25.1241C82.0892 25.9454 82.2798 26.5908 82.6612 27.0601C83.0718 27.5001 83.7025 27.7201 84.5532 27.7201H86.4012V31.5481ZM110.119 13.0681H105.675V31.5481H101.187V13.0681H98.6346V9.63609H101.187V6.20409C101.187 5.41209 101.304 4.64943 101.539 3.91609C101.803 3.15343 102.184 2.49343 102.683 1.93609C103.181 1.34943 103.812 0.880095 104.575 0.528094C105.337 0.176095 106.247 9.53674e-05 107.303 9.53674e-05H110.119V3.82809H108.139C107.288 3.82809 106.657 4.06276 106.247 4.53209C105.865 4.97209 105.675 5.60276 105.675 6.42409V9.63609H110.119V13.0681ZM130.646 20.3721C130.646 22.2788 130.47 23.9508 130.118 25.3881C129.766 26.7961 129.062 28.0574 128.006 29.1721C127.272 29.9348 126.348 30.5654 125.234 31.0641C124.148 31.5628 122.843 31.8121 121.318 31.8121C119.792 31.8121 118.487 31.5628 117.402 31.0641C116.316 30.5654 115.407 29.9348 114.674 29.1721C113.618 28.0574 112.914 26.7961 112.562 25.3881C112.21 23.9508 112.034 22.2788 112.034 20.3721C112.034 18.4948 112.21 16.8521 112.562 15.4441C112.914 14.0068 113.618 12.7308 114.674 11.6161C115.407 10.8534 116.316 10.2228 117.402 9.72409C118.487 9.22543 119.792 8.9761 121.318 8.9761C122.843 8.9761 124.148 9.22543 125.234 9.72409C126.348 10.2228 127.272 10.8534 128.006 11.6161C129.062 12.7308 129.766 14.0068 130.118 15.4441C130.47 16.8521 130.646 18.4948 130.646 20.3721ZM126.158 20.3721C126.158 19.1401 126.07 17.9814 125.894 16.8961C125.718 15.8108 125.292 14.9308 124.618 14.2561C123.767 13.4054 122.667 12.9801 121.318 12.9801C119.998 12.9801 118.912 13.4054 118.062 14.2561C117.387 14.9308 116.962 15.8108 116.786 16.8961C116.61 17.9814 116.522 19.1401 116.522 20.3721C116.522 21.6041 116.61 22.7628 116.786 23.8481C116.962 24.9334 117.387 25.8134 118.062 26.4881C118.942 27.3681 120.027 27.8081 121.318 27.8081C122.638 27.8081 123.738 27.3681 124.618 26.4881C125.292 25.8134 125.718 24.9334 125.894 23.8481C126.07 22.7628 126.158 21.6041 126.158 20.3721ZM151.286 11.0881L147.898 14.4761C147.4 13.9774 146.901 13.6108 146.402 13.3761C145.933 13.1121 145.317 12.9801 144.554 12.9801C143.322 12.9801 142.266 13.4348 141.386 14.3441C140.536 15.2241 140.11 16.4414 140.11 17.9961V31.5481H135.622V9.24009H140.022V11.6601C140.609 10.8681 141.43 10.2228 142.486 9.72409C143.542 9.22543 144.701 8.9761 145.962 8.9761C147.048 8.9761 148.016 9.13743 148.866 9.46009C149.717 9.78276 150.524 10.3254 151.286 11.0881ZM172.657 31.5481H169.973C168.917 31.5481 168.007 31.3721 167.245 31.0201C166.482 30.6681 165.851 30.2134 165.353 29.6561C164.854 29.0694 164.473 28.4094 164.209 27.6761C163.974 26.9134 163.857 26.1361 163.857 25.3441V13.0681H161.305V9.63609H163.857V2.8601H168.345V9.63609H172.657V13.0681H168.345V25.1241C168.345 25.9454 168.535 26.5908 168.917 27.0601C169.327 27.5001 169.958 27.7201 170.809 27.7201H172.657V31.5481ZM195.264 31.5481H190.776V17.8641C190.776 16.1628 190.336 14.9308 189.456 14.1681C188.605 13.3761 187.549 12.9801 186.288 12.9801C185.026 12.9801 183.956 13.3761 183.076 14.1681C182.196 14.9601 181.756 16.1921 181.756 17.8641V31.5481H177.268V0.220095H181.756V11.4841C182.518 10.6334 183.384 10.0028 184.352 9.5921C185.349 9.18143 186.405 8.9761 187.52 8.9761C188.752 8.9761 189.852 9.18143 190.82 9.5921C191.788 9.97343 192.594 10.5308 193.24 11.2641C193.914 11.9681 194.413 12.8334 194.736 13.8601C195.088 14.8574 195.264 15.9574 195.264 17.1601V31.5481ZM218.866 21.6921H204.39C204.39 23.6281 204.874 25.1534 205.842 26.2681C206.81 27.3828 208.218 27.9401 210.066 27.9401C211.327 27.9401 212.339 27.7641 213.102 27.4121C213.894 27.0308 214.686 26.4441 215.478 25.6521L218.338 28.3361C217.751 28.9228 217.164 29.4361 216.578 29.8761C216.02 30.2868 215.404 30.6388 214.73 30.9321C214.084 31.2254 213.366 31.4454 212.574 31.5921C211.811 31.7388 210.946 31.8121 209.978 31.8121C208.57 31.8121 207.25 31.6214 206.018 31.2401C204.815 30.8294 203.759 30.1841 202.85 29.3041C201.97 28.3948 201.266 27.2068 200.738 25.7401C200.21 24.2734 199.946 22.4841 199.946 20.3721C199.946 16.7348 200.796 13.9334 202.498 11.9681C204.228 9.97343 206.531 8.9761 209.406 8.9761C210.902 8.9761 212.236 9.24009 213.41 9.76809C214.583 10.2961 215.566 11.0294 216.358 11.9681C217.179 12.9068 217.795 14.0361 218.206 15.3561C218.646 16.6761 218.866 18.1281 218.866 19.7121V21.6921ZM214.422 18.5681C214.392 17.8934 214.334 17.3508 214.246 16.9401C214.187 16.5001 214.04 16.0308 213.806 15.5321C213.454 14.6814 212.896 14.0068 212.134 13.5081C211.371 12.9801 210.462 12.7161 209.406 12.7161C208.35 12.7161 207.426 12.9801 206.634 13.5081C205.871 14.0068 205.314 14.6814 204.962 15.5321C204.727 16.0308 204.58 16.5001 204.522 16.9401C204.463 17.3508 204.419 17.8934 204.39 18.5681H214.422ZM261.955 9.24009L255.003 31.5481H251.175L245.939 15.9721L240.747 31.5481H236.875L229.967 9.24009H234.719L239.031 24.9481L244.223 9.24009H247.699L252.847 24.9481L257.159 9.24009H261.955ZM282.033 20.3721C282.033 22.2788 281.857 23.9508 281.505 25.3881C281.153 26.7961 280.449 28.0574 279.393 29.1721C278.66 29.9348 277.736 30.5654 276.621 31.0641C275.536 31.5628 274.23 31.8121 272.705 31.8121C271.18 31.8121 269.874 31.5628 268.789 31.0641C267.704 30.5654 266.794 29.9348 266.061 29.1721C265.005 28.0574 264.301 26.7961 263.949 25.3881C263.597 23.9508 263.421 22.2788 263.421 20.3721C263.421 18.4948 263.597 16.8521 263.949 15.4441C264.301 14.0068 265.005 12.7308 266.061 11.6161C266.794 10.8534 267.704 10.2228 268.789 9.72409C269.874 9.22543 271.18 8.9761 272.705 8.9761C274.23 8.9761 275.536 9.22543 276.621 9.72409C277.736 10.2228 278.66 10.8534 279.393 11.6161C280.449 12.7308 281.153 14.0068 281.505 15.4441C281.857 16.8521 282.033 18.4948 282.033 20.3721ZM277.545 20.3721C277.545 19.1401 277.457 17.9814 277.281 16.8961C277.105 15.8108 276.68 14.9308 276.005 14.2561C275.154 13.4054 274.054 12.9801 272.705 12.9801C271.385 12.9801 270.3 13.4054 269.449 14.2561C268.774 14.9308 268.349 15.8108 268.173 16.8961C267.997 17.9814 267.909 19.1401 267.909 20.3721C267.909 21.6041 267.997 22.7628 268.173 23.8481C268.349 24.9334 268.774 25.8134 269.449 26.4881C270.329 27.3681 271.414 27.8081 272.705 27.8081C274.025 27.8081 275.125 27.3681 276.005 26.4881C276.68 25.8134 277.105 24.9334 277.281 23.8481C277.457 22.7628 277.545 21.6041 277.545 20.3721ZM302.674 11.0881L299.286 14.4761C298.787 13.9774 298.289 13.6108 297.79 13.3761C297.321 13.1121 296.705 12.9801 295.942 12.9801C294.71 12.9801 293.654 13.4348 292.774 14.3441C291.923 15.2241 291.498 16.4414 291.498 17.9961V31.5481H287.01V9.24009H291.41V11.6601C291.997 10.8681 292.818 10.2228 293.874 9.72409C294.93 9.22543 296.089 8.9761 297.35 8.9761C298.435 8.9761 299.403 9.13743 300.254 9.46009C301.105 9.78276 301.911 10.3254 302.674 11.0881ZM324.826 31.5481H319.282L313.034 21.2521L309.734 24.9921V31.5481H305.246V0.220095H309.734V19.5361L318.402 9.24009H323.858L316.114 17.9961L324.826 31.5481ZM11.352 83.5481H8.66796C7.61196 83.5481 6.70263 83.3721 5.93996 83.0201C5.17729 82.6681 4.54663 82.2134 4.04796 81.6561C3.54929 81.0694 3.16796 80.4094 2.90396 79.6761C2.66929 78.9134 2.55196 78.1361 2.55196 77.3441V65.0681H-3.90559e-05V61.6361H2.55196V54.8601H7.03996V61.6361H11.352V65.0681H7.03996V77.1241C7.03996 77.9454 7.23063 78.5908 7.61196 79.0601C8.02263 79.5001 8.6533 79.7201 9.50396 79.7201H11.352V83.5481ZM33.959 83.5481H29.471V69.8641C29.471 68.1628 29.031 66.9308 28.151 66.1681C27.3004 65.3761 26.2444 64.9801 24.983 64.9801C23.7217 64.9801 22.651 65.3761 21.771 66.1681C20.891 66.9601 20.451 68.1921 20.451 69.8641V83.5481H15.963V52.2201H20.451V63.4841C21.2137 62.6334 22.079 62.0028 23.047 61.5921C24.0444 61.1814 25.1004 60.9761 26.215 60.9761C27.447 60.9761 28.547 61.1814 29.515 61.5921C30.483 61.9734 31.2897 62.5308 31.935 63.2641C32.6097 63.9681 33.1084 64.8334 33.431 65.8601C33.783 66.8574 33.959 67.9574 33.959 69.1601V83.5481ZM56.1969 83.5481H51.7969V81.5241C50.9756 82.3454 50.1249 82.9321 49.2449 83.2841C48.3649 83.6361 47.2356 83.8121 45.8569 83.8121C44.4489 83.8121 43.2609 83.6508 42.2929 83.3281C41.3542 82.9761 40.5476 82.4628 39.8729 81.7881C38.6996 80.5561 38.1129 78.9574 38.1129 76.9921C38.1129 75.1148 38.7436 73.5748 40.0049 72.3721C41.2956 71.1694 43.2316 70.5681 45.8129 70.5681H51.7089V68.9841C51.7089 67.5761 51.3276 66.5348 50.5649 65.8601C49.8316 65.1561 48.5849 64.8041 46.8249 64.8041C45.5929 64.8041 44.6249 64.9654 43.9209 65.2881C43.2169 65.6108 42.5569 66.1681 41.9409 66.9601L38.9929 64.1881C40.0489 62.9561 41.1782 62.1201 42.3809 61.6801C43.6129 61.2108 45.1529 60.9761 47.0009 60.9761C53.1316 60.9761 56.1969 63.5281 56.1969 68.6321V83.5481ZM51.7089 75.4961V73.6921H46.4729C45.1529 73.6921 44.1556 73.9708 43.4809 74.5281C42.8062 75.0854 42.4689 75.8774 42.4689 76.9041C42.4689 77.9308 42.7916 78.7228 43.4369 79.2801C44.1116 79.8081 45.1529 80.0721 46.5609 80.0721C47.4116 80.0721 48.1742 80.0134 48.8489 79.8961C49.5236 79.7494 50.1542 79.3828 50.7409 78.7961C51.3862 78.1508 51.7089 77.0508 51.7089 75.4961ZM71.3449 83.5481H68.6609C67.6049 83.5481 66.6956 83.3721 65.9329 83.0201C65.1703 82.6681 64.5396 82.2134 64.0409 81.6561C63.5423 81.0694 63.1609 80.4094 62.8969 79.6761C62.6623 78.9134 62.5449 78.1361 62.5449 77.3441V65.0681H59.9929V61.6361H62.5449V54.8601H67.0329V61.6361H71.3449V65.0681H67.0329V77.1241C67.0329 77.9454 67.2236 78.5908 67.6049 79.0601C68.0156 79.5001 68.6463 79.7201 69.4969 79.7201H71.3449V83.5481ZM101.574 80.6441C100.518 81.7588 99.4183 82.5654 98.2743 83.0641C97.1303 83.5628 95.781 83.8121 94.2263 83.8121C92.965 83.8121 91.733 83.6068 90.5303 83.1961C89.357 82.7854 88.301 82.1254 87.3623 81.2161C86.453 80.3068 85.705 79.1334 85.1183 77.6961C84.561 76.2294 84.2823 74.4548 84.2823 72.3721C84.2823 70.2894 84.561 68.5294 85.1183 67.0921C85.705 65.6254 86.453 64.4521 87.3623 63.5721C88.301 62.6628 89.357 62.0028 90.5303 61.5921C91.733 61.1814 92.965 60.9761 94.2263 60.9761C95.781 60.9761 97.1303 61.2254 98.2743 61.7241C99.4183 62.1934 100.518 62.9854 101.574 64.1001L98.4943 67.0921C97.7903 66.3294 97.1156 65.7868 96.4703 65.4641C95.8543 65.1414 95.1063 64.9801 94.2263 64.9801C92.4663 64.9801 91.0876 65.6401 90.0903 66.9601C89.5916 67.5761 89.2396 68.3094 89.0343 69.1601C88.8583 69.9814 88.7703 71.0521 88.7703 72.3721C88.7703 73.6921 88.8583 74.7774 89.0343 75.6281C89.2396 76.4788 89.5916 77.2121 90.0903 77.8281C91.0876 79.1481 92.4663 79.8081 94.2263 79.8081C95.1063 79.8081 95.8543 79.6468 96.4703 79.3241C97.1156 79.0014 97.7903 78.4588 98.4943 77.6961L101.574 80.6441ZM121.75 83.5481H117.35V81.5241C116.529 82.3454 115.678 82.9321 114.798 83.2841C113.918 83.6361 112.789 83.8121 111.41 83.8121C110.002 83.8121 108.814 83.6508 107.846 83.3281C106.907 82.9761 106.101 82.4628 105.426 81.7881C104.253 80.5561 103.666 78.9574 103.666 76.9921C103.666 75.1148 104.297 73.5748 105.558 72.3721C106.849 71.1694 108.785 70.5681 111.366 70.5681H117.262V68.9841C117.262 67.5761 116.881 66.5348 116.118 65.8601C115.385 65.1561 114.138 64.8041 112.378 64.8041C111.146 64.8041 110.178 64.9654 109.474 65.2881C108.77 65.6108 108.11 66.1681 107.494 66.9601L104.546 64.1881C105.602 62.9561 106.731 62.1201 107.934 61.6801C109.166 61.2108 110.706 60.9761 112.554 60.9761C118.685 60.9761 121.75 63.5281 121.75 68.6321V83.5481ZM117.262 75.4961V73.6921H112.026C110.706 73.6921 109.709 73.9708 109.034 74.5281C108.359 75.0854 108.022 75.8774 108.022 76.9041C108.022 77.9308 108.345 78.7228 108.99 79.2801C109.665 79.8081 110.706 80.0721 112.114 80.0721C112.965 80.0721 113.727 80.0134 114.402 79.8961C115.077 79.7494 115.707 79.3828 116.294 78.7961C116.939 78.1508 117.262 77.0508 117.262 75.4961ZM145.654 83.5481H141.166V69.9521C141.166 68.2214 140.726 66.9601 139.846 66.1681C138.995 65.3761 137.939 64.9801 136.678 64.9801C135.417 64.9801 134.331 65.3908 133.422 66.2121C132.513 67.0041 132.058 68.2508 132.058 69.9521V83.5481H127.57V61.2401H131.97V63.4841C132.733 62.6334 133.627 62.0028 134.654 61.5921C135.71 61.1814 136.795 60.9761 137.91 60.9761C139.054 60.9761 140.081 61.1521 140.99 61.5041C141.929 61.8561 142.735 62.3548 143.41 63.0001C144.261 63.8508 144.847 64.8041 145.17 65.8601C145.493 66.8868 145.654 68.0308 145.654 69.2921V83.5481ZM169.562 83.5481H165.074V69.9521C165.074 68.2214 164.634 66.9601 163.754 66.1681C162.903 65.3761 161.847 64.9801 160.586 64.9801C159.325 64.9801 158.239 65.3908 157.33 66.2121C156.421 67.0041 155.966 68.2508 155.966 69.9521V83.5481H151.478V61.2401H155.878V63.4841C156.641 62.6334 157.535 62.0028 158.562 61.5921C159.618 61.1814 160.703 60.9761 161.818 60.9761C162.962 60.9761 163.989 61.1521 164.898 61.5041C165.837 61.8561 166.643 62.3548 167.318 63.0001C168.169 63.8508 168.755 64.8041 169.078 65.8601C169.401 66.8868 169.562 68.0308 169.562 69.2921V83.5481ZM192.942 72.3721C192.942 74.2788 192.766 75.9508 192.414 77.3881C192.062 78.7961 191.358 80.0574 190.302 81.1721C189.568 81.9348 188.644 82.5654 187.53 83.0641C186.444 83.5628 185.139 83.8121 183.614 83.8121C182.088 83.8121 180.783 83.5628 179.698 83.0641C178.612 82.5654 177.703 81.9348 176.97 81.1721C175.914 80.0574 175.21 78.7961 174.858 77.3881C174.506 75.9508 174.33 74.2788 174.33 72.3721C174.33 70.4948 174.506 68.8521 174.858 67.4441C175.21 66.0068 175.914 64.7308 176.97 63.6161C177.703 62.8534 178.612 62.2228 179.698 61.7241C180.783 61.2254 182.088 60.9761 183.614 60.9761C185.139 60.9761 186.444 61.2254 187.53 61.7241C188.644 62.2228 189.568 62.8534 190.302 63.6161C191.358 64.7308 192.062 66.0068 192.414 67.4441C192.766 68.8521 192.942 70.4948 192.942 72.3721ZM188.454 72.3721C188.454 71.1401 188.366 69.9814 188.19 68.8961C188.014 67.8108 187.588 66.9308 186.914 66.2561C186.063 65.4054 184.963 64.9801 183.614 64.9801C182.294 64.9801 181.208 65.4054 180.358 66.2561C179.683 66.9308 179.258 67.8108 179.082 68.8961C178.906 69.9814 178.818 71.1401 178.818 72.3721C178.818 73.6041 178.906 74.7628 179.082 75.8481C179.258 76.9334 179.683 77.8134 180.358 78.4881C181.238 79.3681 182.323 79.8081 183.614 79.8081C184.934 79.8081 186.034 79.3681 186.914 78.4881C187.588 77.8134 188.014 76.9334 188.19 75.8481C188.366 74.7628 188.454 73.6041 188.454 72.3721ZM207.246 83.5481H204.562C203.506 83.5481 202.597 83.3721 201.834 83.0201C201.072 82.6681 200.441 82.2134 199.942 81.6561C199.444 81.0694 199.062 80.4094 198.798 79.6761C198.564 78.9134 198.446 78.1361 198.446 77.3441V65.0681H195.894V61.6361H198.446V54.8601H202.934V61.6361H207.246V65.0681H202.934V77.1241C202.934 77.9454 203.125 78.5908 203.506 79.0601C203.917 79.5001 204.548 79.7201 205.398 79.7201H207.246V83.5481ZM237.74 83.5481H233.34V81.5241C232.519 82.3454 231.668 82.9321 230.788 83.2841C229.908 83.6361 228.779 83.8121 227.4 83.8121C225.992 83.8121 224.804 83.6508 223.836 83.3281C222.897 82.9761 222.091 82.4628 221.416 81.7881C220.243 80.5561 219.656 78.9574 219.656 76.9921C219.656 75.1148 220.287 73.5748 221.548 72.3721C222.839 71.1694 224.775 70.5681 227.356 70.5681H233.252V68.9841C233.252 67.5761 232.871 66.5348 232.108 65.8601C231.375 65.1561 230.128 64.8041 228.368 64.8041C227.136 64.8041 226.168 64.9654 225.464 65.2881C224.76 65.6108 224.1 66.1681 223.484 66.9601L220.536 64.1881C221.592 62.9561 222.721 62.1201 223.924 61.6801C225.156 61.2108 226.696 60.9761 228.544 60.9761C234.675 60.9761 237.74 63.5281 237.74 68.6321V83.5481ZM233.252 75.4961V73.6921H228.016C226.696 73.6921 225.699 73.9708 225.024 74.5281C224.349 75.0854 224.012 75.8774 224.012 76.9041C224.012 77.9308 224.335 78.7228 224.98 79.2801C225.655 79.8081 226.696 80.0721 228.104 80.0721C228.955 80.0721 229.717 80.0134 230.392 79.8961C231.067 79.7494 231.697 79.3828 232.284 78.7961C232.929 78.1508 233.252 77.0508 233.252 75.4961ZM253.196 65.0681H248.752V83.5481H244.264V65.0681H241.712V61.6361H244.264V58.2041C244.264 57.4121 244.381 56.6494 244.616 55.9161C244.88 55.1534 245.261 54.4934 245.76 53.9361C246.259 53.3494 246.889 52.8801 247.652 52.5281C248.415 52.1761 249.324 52.0001 250.38 52.0001H253.196V55.8281H251.216C250.365 55.8281 249.735 56.0628 249.324 56.5321C248.943 56.9721 248.752 57.6028 248.752 58.4241V61.6361H253.196V65.0681ZM266.533 65.0681H262.089V83.5481H257.601V65.0681H255.049V61.6361H257.601V58.2041C257.601 57.4121 257.719 56.6494 257.953 55.9161C258.217 55.1534 258.599 54.4934 259.097 53.9361C259.596 53.3494 260.227 52.8801 260.989 52.5281C261.752 52.1761 262.661 52.0001 263.717 52.0001H266.533V55.8281H264.553C263.703 55.8281 263.072 56.0628 262.661 56.5321C262.28 56.9721 262.089 57.6028 262.089 58.4241V61.6361H266.533V65.0681ZM287.06 72.3721C287.06 74.2788 286.884 75.9508 286.532 77.3881C286.18 78.7961 285.476 80.0574 284.42 81.1721C283.687 81.9348 282.763 82.5654 281.648 83.0641C280.563 83.5628 279.258 83.8121 277.732 83.8121C276.207 83.8121 274.902 83.5628 273.816 83.0641C272.731 82.5654 271.822 81.9348 271.088 81.1721C270.032 80.0574 269.328 78.7961 268.976 77.3881C268.624 75.9508 268.448 74.2788 268.448 72.3721C268.448 70.4948 268.624 68.8521 268.976 67.4441C269.328 66.0068 270.032 64.7308 271.088 63.6161C271.822 62.8534 272.731 62.2228 273.816 61.7241C274.902 61.2254 276.207 60.9761 277.732 60.9761C279.258 60.9761 280.563 61.2254 281.648 61.7241C282.763 62.2228 283.687 62.8534 284.42 63.6161C285.476 64.7308 286.18 66.0068 286.532 67.4441C286.884 68.8521 287.06 70.4948 287.06 72.3721ZM282.572 72.3721C282.572 71.1401 282.484 69.9814 282.308 68.8961C282.132 67.8108 281.707 66.9308 281.032 66.2561C280.182 65.4054 279.082 64.9801 277.732 64.9801C276.412 64.9801 275.327 65.4054 274.476 66.2561C273.802 66.9308 273.376 67.8108 273.2 68.8961C273.024 69.9814 272.936 71.1401 272.936 72.3721C272.936 73.6041 273.024 74.7628 273.2 75.8481C273.376 76.9334 273.802 77.8134 274.476 78.4881C275.356 79.3681 276.442 79.8081 277.732 79.8081C279.052 79.8081 280.152 79.3681 281.032 78.4881C281.707 77.8134 282.132 76.9334 282.308 75.8481C282.484 74.7628 282.572 73.6041 282.572 72.3721ZM307.701 63.0881L304.313 66.4761C303.815 65.9774 303.316 65.6108 302.817 65.3761C302.348 65.1121 301.732 64.9801 300.969 64.9801C299.737 64.9801 298.681 65.4348 297.801 66.3441C296.951 67.2241 296.525 68.4414 296.525 69.9961V83.5481H292.037V61.2401H296.437V63.6601C297.024 62.8681 297.845 62.2228 298.901 61.7241C299.957 61.2254 301.116 60.9761 302.377 60.9761C303.463 60.9761 304.431 61.1374 305.281 61.4601C306.132 61.7828 306.939 62.3254 307.701 63.0881ZM326.059 83.5481H321.659V81.1721C320.809 82.1988 319.914 82.9028 318.975 83.2841C318.066 83.6361 316.995 83.8121 315.763 83.8121C314.649 83.8121 313.607 83.6361 312.639 83.2841C311.701 82.9321 310.923 82.4481 310.307 81.8321C309.75 81.2748 309.295 80.6294 308.943 79.8961C308.621 79.1628 308.371 78.3854 308.195 77.5641C308.019 76.7134 307.902 75.8481 307.843 74.9681C307.814 74.0881 307.799 73.2228 307.799 72.3721C307.799 71.5214 307.814 70.6561 307.843 69.7761C307.902 68.8961 308.019 68.0454 308.195 67.2241C308.371 66.4028 308.621 65.6254 308.943 64.8921C309.295 64.1588 309.75 63.5134 310.307 62.9561C310.923 62.3401 311.701 61.8561 312.639 61.5041C313.578 61.1521 314.605 60.9761 315.719 60.9761C316.922 60.9761 317.993 61.1521 318.931 61.5041C319.87 61.8561 320.75 62.5161 321.571 63.4841V52.2201H326.059V83.5481ZM321.571 72.3721C321.571 71.3748 321.513 70.4361 321.395 69.5561C321.307 68.6468 321.102 67.8548 320.779 67.1801C320.457 66.5054 319.987 65.9774 319.371 65.5961C318.755 65.1854 317.949 64.9801 316.951 64.9801C315.925 64.9801 315.103 65.1854 314.487 65.5961C313.901 65.9774 313.431 66.5054 313.079 67.1801C312.757 67.8548 312.537 68.6468 312.419 69.5561C312.331 70.4361 312.287 71.3748 312.287 72.3721C312.287 73.3694 312.331 74.3228 312.419 75.2321C312.537 76.1121 312.757 76.9041 313.079 77.6081C313.431 78.2828 313.901 78.8254 314.487 79.2361C315.103 79.6174 315.925 79.8081 316.951 79.8081C317.949 79.8081 318.755 79.6174 319.371 79.2361C319.987 78.8254 320.457 78.2828 320.779 77.6081C321.102 76.9041 321.307 76.1121 321.395 75.2321C321.513 74.3228 321.571 73.3694 321.571 72.3721ZM350.874 83.5481H348.19C347.134 83.5481 346.225 83.3721 345.462 83.0201C344.699 82.6681 344.069 82.2134 343.57 81.6561C343.071 81.0694 342.69 80.4094 342.426 79.6761C342.191 78.9134 342.074 78.1361 342.074 77.3441V65.0681H339.522V61.6361H342.074V54.8601H346.562V61.6361H350.874V65.0681H346.562V77.1241C346.562 77.9454 346.753 78.5908 347.134 79.0601C347.545 79.5001 348.175 79.7201 349.026 79.7201H350.874V83.5481ZM372.826 72.3721C372.826 74.2788 372.65 75.9508 372.298 77.3881C371.946 78.7961 371.242 80.0574 370.186 81.1721C369.453 81.9348 368.529 82.5654 367.414 83.0641C366.329 83.5628 365.023 83.8121 363.498 83.8121C361.973 83.8121 360.667 83.5628 359.582 83.0641C358.497 82.5654 357.587 81.9348 356.854 81.1721C355.798 80.0574 355.094 78.7961 354.742 77.3881C354.39 75.9508 354.214 74.2788 354.214 72.3721C354.214 70.4948 354.39 68.8521 354.742 67.4441C355.094 66.0068 355.798 64.7308 356.854 63.6161C357.587 62.8534 358.497 62.2228 359.582 61.7241C360.667 61.2254 361.973 60.9761 363.498 60.9761C365.023 60.9761 366.329 61.2254 367.414 61.7241C368.529 62.2228 369.453 62.8534 370.186 63.6161C371.242 64.7308 371.946 66.0068 372.298 67.4441C372.65 68.8521 372.826 70.4948 372.826 72.3721ZM368.338 72.3721C368.338 71.1401 368.25 69.9814 368.074 68.8961C367.898 67.8108 367.473 66.9308 366.798 66.2561C365.947 65.4054 364.847 64.9801 363.498 64.9801C362.178 64.9801 361.093 65.4054 360.242 66.2561C359.567 66.9308 359.142 67.8108 358.966 68.8961C358.79 69.9814 358.702 71.1401 358.702 72.3721C358.702 73.6041 358.79 74.7628 358.966 75.8481C359.142 76.9334 359.567 77.8134 360.242 78.4881C361.122 79.3681 362.207 79.8081 363.498 79.8081C364.818 79.8081 365.918 79.3681 366.798 78.4881C367.473 77.8134 367.898 76.9334 368.074 75.8481C368.25 74.7628 368.338 73.6041 368.338 72.3721ZM396.909 65.0681H392.465V83.5481H387.977V65.0681H385.425V61.6361H387.977V58.2041C387.977 57.4121 388.095 56.6494 388.329 55.9161C388.593 55.1534 388.975 54.4934 389.473 53.9361C389.972 53.3494 390.603 52.8801 391.365 52.5281C392.128 52.1761 393.037 52.0001 394.093 52.0001H396.909V55.8281H394.929C394.079 55.8281 393.448 56.0628 393.037 56.5321C392.656 56.9721 392.465 57.6028 392.465 58.4241V61.6361H396.909V65.0681ZM416.292 83.5481H411.892V81.5241C411.071 82.3454 410.22 82.9321 409.34 83.2841C408.46 83.6361 407.331 83.8121 405.952 83.8121C404.544 83.8121 403.356 83.6508 402.388 83.3281C401.45 82.9761 400.643 82.4628 399.968 81.7881C398.795 80.5561 398.208 78.9574 398.208 76.9921C398.208 75.1148 398.839 73.5748 400.1 72.3721C401.391 71.1694 403.327 70.5681 405.908 70.5681H411.804V68.9841C411.804 67.5761 411.423 66.5348 410.66 65.8601C409.927 65.1561 408.68 64.8041 406.92 64.8041C405.688 64.8041 404.72 64.9654 404.016 65.2881C403.312 65.6108 402.652 66.1681 402.036 66.9601L399.088 64.1881C400.144 62.9561 401.274 62.1201 402.476 61.6801C403.708 61.2108 405.248 60.9761 407.096 60.9761C413.227 60.9761 416.292 63.5281 416.292 68.6321V83.5481ZM411.804 75.4961V73.6921H406.568C405.248 73.6921 404.251 73.9708 403.576 74.5281C402.902 75.0854 402.564 75.8774 402.564 76.9041C402.564 77.9308 402.887 78.7228 403.532 79.2801C404.207 79.8081 405.248 80.0721 406.656 80.0721C407.507 80.0721 408.27 80.0134 408.944 79.8961C409.619 79.7494 410.25 79.3828 410.836 78.7961C411.482 78.1508 411.804 77.0508 411.804 75.4961ZM426.732 56.8401H421.98V52.0881H426.732V56.8401ZM426.6 83.5481H422.112V61.2401H426.6V83.5481ZM441.37 83.5481H438.598C437.542 83.5481 436.618 83.3868 435.826 83.0641C435.063 82.7121 434.432 82.2574 433.934 81.7001C433.435 81.1428 433.068 80.4974 432.834 79.7641C432.599 79.0014 432.482 78.2094 432.482 77.3881V52.2201H436.97V77.1241C436.97 77.9748 437.146 78.6201 437.498 79.0601C437.85 79.5001 438.48 79.7201 439.39 79.7201H441.37V83.5481ZM450.414 83.5481H445.046V78.1801H450.414V83.5481Z" fill="#303030" />
</g></svg>