<svg xmlns="http://www.w3.org/2000/svg" width="86" height="34" fill="none"><path fill="transparent" stroke="#242323" stroke-miterlimit="10" d="M30.856 33c-.356-.055-.712-.11-1.112-.284-.399-.173-.842-.465-1.312-.84a16.134 16.134 0 0 1-1.494-1.367 31.503 31.503 0 0 1-1.65-1.846 58.867 58.867 0 0 1-1.78-2.259 101.836 101.836 0 0 1-1.883-2.592 189.93 189.93 0 0 1-1.957-2.833 453.81 453.81 0 0 1-1.998-2.974c-.67-1.004-1.341-2.013-2.009-3.01-.657-.984-1.32-1.963-1.988-2.939-.635-.929-1.28-1.85-1.935-2.764a86.339 86.339 0 0 0-1.852-2.491 48.608 48.608 0 0 0-1.74-2.129 25.51 25.51 0 0 0-1.601-1.693A12.199 12.199 0 0 0 5.11 1.783c-.449-.311-.866-.531-1.248-.657C3.479 1 3.131.968 2.821 1.032a1.512 1.512 0 0 0-.817.471c-.234.25-.428.592-.581 1.02a7.072 7.072 0 0 0-.335 1.533c-.07.591-.099 1.259-.084 1.991.018.796.074 1.59.168 2.38.105.899.245 1.794.417 2.683.189.971.409 1.936.661 2.892a48.672 48.672 0 0 0 2.006 5.996c.401.98.839 1.945 1.312 2.892.458.916.956 1.811 1.494 2.683a26.473 26.473 0 0 0 1.65 2.38c.573.732 1.168 1.4 1.78 1.991a13.599 13.599 0 0 0 1.883 1.533 9.77 9.77 0 0 0 1.957 1.02 7.634 7.634 0 0 0 1.998.471c.67.064 1.341.032 2.009-.094a8.176 8.176 0 0 0 1.988-.657 10.89 10.89 0 0 0 1.935-1.196 15.21 15.21 0 0 0 1.852-1.693 21.468 21.468 0 0 0 1.74-2.129 29.043 29.043 0 0 0 1.601-2.491c.517-.901.996-1.823 1.435-2.764.452-.964.868-1.944 1.248-2.939.38-.991.728-1.995 1.041-3.01.305-.982.577-1.974.817-2.974.226-.937.42-1.883.581-2.833.153-.91.265-1.779.335-2.592a21.2 21.2 0 0 0 .084-2.259 11.745 11.745 0 0 0-.168-1.846c-.097-.539-.237-.997-.417-1.367-.181-.37-.401-.652-.661-.84A1.484 1.484 0 0 0 30.856 1c-.335 0-.706.095-1.112.284-.405.188-.844.47-1.312.84-.469.37-.968.828-1.494 1.367a31.831 31.831 0 0 0-1.65 1.846 57.897 57.897 0 0 0-1.78 2.259c-.641.854-1.269 1.718-1.883 2.592a189.93 189.93 0 0 0-1.957 2.833c-.67.989-1.336 1.98-1.998 2.974-.67 1.004-1.341 2.013-2.009 3.01-.657.984-1.32 1.963-1.988 2.939-.635.929-1.28 1.85-1.935 2.764a86.339 86.339 0 0 1-1.852 2.491c-.56.726-1.14 1.436-1.74 2.129a25.51 25.51 0 0 1-1.601 1.693c-.507.484-.987.885-1.435 1.196-.449.311-.866.531-1.248.657-.383.126-.731.158-1.041.094a1.512 1.512 0 0 1-.817-.471c-.234-.25-.428-.592-.581-1.02a7.072 7.072 0 0 1-.335-1.533 14.546 14.546 0 0 1-.084-1.991c.018-.796.074-1.59.168-2.38a36.29 36.29 0 0 1 .417-2.683c.189-.971.409-1.936.661-2.892a48.672 48.672 0 0 1 2.006-5.996 42.46 42.46 0 0 1 1.312-2.892c.458-.916.956-1.811 1.494-2.683a26.473 26.473 0 0 1 1.65-2.38c.573-.732 1.168-1.4 1.78-1.991a13.599 13.599 0 0 1 1.883-1.533 9.77 9.77 0 0 1 1.957-1.02 7.634 7.634 0 0 1 1.998-.471 7.161 7.161 0 0 1 2.009.094 8.176 8.176 0 0 1 1.988.657 10.89 10.89 0 0 1 1.935 1.196 15.21 15.21 0 0 1 1.852 1.693 21.468 21.468 0 0 1 1.74 2.129c.576.803 1.11 1.634 1.601 2.491.517.901.996 1.823 1.435 2.764.452.964.868 1.944 1.248 2.939.38.991.728 1.995 1.041 3.01.305.982.577 1.974.817 2.974.226.937.42 1.883.581 2.833.153.91.265 1.779.335 2.592a21.2 21.2 0 0 1 .084 2.259 11.5 11.5 0 0 1-.168 1.846 5.471 5.471 0 0 1-.417 1.367c-.179.375-.396.667-.661.84-.266.174-.579.229-.894.284"/><path fill="#242323" d="M47.001 24.453h1.928v-6.118h5.082v-1.804h-5.082v-4.563h6.41v-1.805H47v14.29Zm9.506 0h1.888V9.5h-1.888Zm3.364-4.873c0 1.514.497 2.737 1.472 3.67.975.934 2.178 1.41 3.588 1.41 1.41 0 2.614-.476 3.588-1.41.996-.954 1.494-2.177 1.494-3.67 0-1.494-.498-2.697-1.473-3.63-.975-.933-2.178-1.39-3.609-1.39-1.43 0-2.634.457-3.609 1.39-.974.933-1.451 2.136-1.451 3.63Zm8.254 0c0 .974-.31 1.762-.933 2.364-.602.601-1.369.892-2.26.892-.893 0-1.66-.29-2.282-.892-.602-.602-.913-1.39-.913-2.365 0-.954.311-1.721.913-2.302.622-.58 1.39-.87 2.281-.87.892 0 1.66.29 2.26.87.623.581.934 1.348.934 2.302Zm17.553-4.812h-2.012L81.24 21.55l-2.427-6.782h-1.825l-2.427 6.782-2.426-6.782h-2.012l3.692 9.685h1.534l2.551-7.114 2.634 7.114h1.556Z"/></svg>