<svg width="229" height="33" viewBox="0 0 229 33" fill="none" xmlns="http://www.w3.org/2000/svg">
<path d="M0 0V3.66612H16.2882C19.8049 3.66612 22.99 5.06328 25.3361 7.32567H0V10.9918H8.97075C12.4875 10.9918 15.6725 12.389 18.0187 14.6513H0V18.3175H1.64343C5.24224 18.3175 8.50284 19.777 10.8637 22.1363C13.223 24.4955 14.6825 27.7561 14.6825 31.3549V32.9984H18.3487V14.9813C20.611 17.3275 22.0082 20.5125 22.0082 24.0293V33H25.6743V7.66388C27.9351 10.01 29.3339 13.1951 29.3339 16.7118V33H33V0H0Z" fill="black"/>
<path d="M93.7707 3.81445L84.5388 28.8721H88.9305L90.8322 23.2952H100.964L102.901 28.8721H107.224L97.992 3.81445H93.7739H93.7707ZM92.0073 19.8725L95.8797 8.61367L99.7522 19.8725H92.0073Z" fill="black"/>
<path d="M69.6218 18.1432H81.2392V14.5778H69.6218V7.62593H83.0717V3.81445H65.4375V28.8721H83.21V25.0951H69.6218V18.1432Z" fill="black"/>
<path d="M59.2531 16.2727C58.3882 15.8133 57.8352 15.5672 56.7293 15.2489C55.6571 14.9306 55.1732 14.8255 53.9628 14.5433L51.9229 14.0495C51.4728 13.9428 50.9198 13.7673 50.3315 13.5901C49.7431 13.4129 49.3284 13.2373 49.0519 13.0601C48.0488 12.4596 47.5312 11.7901 47.5312 10.5547C47.5312 8.11977 49.6065 6.74317 52.6141 6.74317C55.8982 6.74317 57.9381 8.50863 57.9381 11.0846H62.0871C62.0871 8.72029 61.1885 6.84982 59.4251 5.40267C57.6616 3.95553 55.3452 3.25 52.5434 3.25C49.7415 3.25 47.5987 3.92107 45.9044 5.29767C44.2101 6.67426 43.3453 8.43808 43.3453 10.6268C43.3453 13.4145 44.694 15.0388 46.6648 16.0971C47.5296 16.5204 48.1517 16.8027 49.2239 17.121C50.3298 17.4393 50.9536 17.5804 52.0933 17.8626C53.3037 18.1448 53.7522 18.2514 54.617 18.4976C55.0671 18.6042 55.4127 18.7092 55.6539 18.8159C56.104 18.957 56.8643 19.2392 57.1408 19.5214C57.9365 20.0858 58.3159 20.7208 58.3159 21.8857C58.3159 24.6734 56.0686 25.9794 52.852 25.9794C49.6354 25.9794 47.3544 24.4617 47.3544 21.4624H42.998C42.998 26.2977 46.594 29.4381 52.8182 29.4381C59.0425 29.4381 62.4648 25.8383 62.4648 21.7446C62.4648 18.957 61.1515 17.1915 59.2498 16.2743L59.2531 16.2727Z" fill="black"/>
<path d="M185.203 3.25C181.676 3.25 178.841 4.44939 176.662 6.88592C174.484 9.3208 173.412 12.4629 173.412 16.3793C173.412 20.2958 174.484 23.4018 176.662 25.8383C178.841 28.2387 181.676 29.4381 185.203 29.4381C188.73 29.4381 191.566 28.2387 193.744 25.8383C195.922 23.4034 196.994 20.2614 196.994 16.3793C196.994 12.4973 195.922 9.3208 193.744 6.88592C191.566 4.45103 188.73 3.25 185.203 3.25ZM192.119 20.5075C190.529 25.1656 185.999 26.7539 182.403 25.1311C180.604 24.3895 179.117 22.9079 178.254 20.5075C177.423 18.0726 177.423 14.6483 178.254 12.2135C179.913 7.55535 184.443 5.96709 188.003 7.5898C189.802 8.33143 191.289 9.77857 192.119 12.2135C192.983 14.6483 192.983 18.0726 192.119 20.5075Z" fill="black"/>
<path d="M162.415 3.81445H158.23V28.8721H174.69V25.0606H162.415V3.81445Z" fill="black"/>
<path d="M224.222 3.81445L219.971 23.6496L214.576 3.81445H210.565L205.17 23.6496L200.952 3.81445H196.561L202.611 28.8721H207.418L212.57 10.0264L217.757 28.8721H222.563L228.614 3.81445H224.222Z" fill="black"/>
<path d="M121.764 24.3896L114.399 3.81445H108.832V28.8721H112.946V9.4603L119.827 28.8721H123.666L130.581 9.38975V28.8721H134.695V3.81445H129.095L121.764 24.3896Z" fill="black"/>
<path d="M138.342 28.8721H142.526V18.5304H153.764V14.9667H142.526V7.62593H155.285V3.81445H138.342V28.8721Z" fill="black"/>
</svg>
